<?xml version="1.0" encoding="iso-8859-1"?>
<!-- Uploaded to: SVG Repo, www.svgrepo.com, Generator: SVG Repo Mixer Tools -->
<!DOCTYPE svg PUBLIC "-//W3C//DTD SVG 1.1//EN" "http://www.w3.org/Graphics/SVG/1.1/DTD/svg11.dtd">
<svg fill="#000000" height="800px" width="800px" version="1.1" id="Capa_1" xmlns="http://www.w3.org/2000/svg" xmlns:xlink="http://www.w3.org/1999/xlink" 
	 viewBox="0 0 473.462 473.462" xml:space="preserve">
<g>
	<path d="M160.203,139.601c25.177,0,48.45,8.111,67.52,21.734L122.203,4.144c-2.057-3.074-5.73-4.637-9.374-4.006
		c-3.634,0.639-6.562,3.357-7.462,6.947L55.968,204.333C75.076,166.035,114.562,139.601,160.203,139.601z"/>
	<path d="M442.54,207.947c-21.087-21.059-55.36-21.065-76.432,0.008c-18.084,18.084-18.084,47.512-0.008,65.611
		c6.161,6.16,16.15,6.152,22.311,0.006c6.163-6.16,6.163-16.15,0.008-22.311c-5.792-5.793-5.792-15.213-0.008-21.002
		c8.781-8.766,23.053-8.766,31.816,0c12.5,12.506,12.508,32.855,0.008,45.353c-8.325,8.318-19.377,12.9-31.138,12.9
		c-0.039,0-0.109-0.008-0.123,0h-72.189c-7.633-13.168-23.814-19.283-38.493-13.686c-7.001,2.688-12.369,7.664-15.866,13.686h-6.917
		c3.467-10.182,5.431-21.055,5.431-32.416c0-55.629-45.102-100.723-100.738-100.723c-55.646,0-100.746,45.094-100.746,100.723
		c0,55.613,45.101,100.707,100.746,100.707c31.354,0,59.356-14.324,77.825-36.773c0.055,0,0.101,0.029,0.155,0.029h23.66
		l30.29,79.012c5.623,14.664,4.236,30.822-3.804,44.316l-2.557,4.281c-10.166-34.025-41.335-58.986-78.673-58.986H89.139
		c-32.802,0-61.137,20.34-74.43,48.734c-3.666,7.85-3.073,17.021,1.579,24.33c4.653,7.311,12.708,11.715,21.372,11.715h290.001
		c10.551,0,20-6.545,23.713-16.42c9.688-25.801,9.758-54.227-0.323-80.551l-21.634-56.432h64.433
		c19.163,0,36.62-10.074,48.69-22.142C467.331,273.125,467.339,232.769,442.54,207.947z"/>
</g>
</svg>