<?xml version="1.0" encoding="iso-8859-1"?>
<!-- Uploaded to: SVG Repo, www.svgrepo.com, Generator: SVG Repo Mixer Tools -->
<!DOCTYPE svg PUBLIC "-//W3C//DTD SVG 1.1//EN" "http://www.w3.org/Graphics/SVG/1.1/DTD/svg11.dtd">
<svg fill="#000000" version="1.1" id="Capa_1" xmlns="http://www.w3.org/2000/svg" xmlns:xlink="http://www.w3.org/1999/xlink" 
	 width="800px" height="800px" viewBox="0 0 42.078 42.078"
	 xml:space="preserve">
<g>
	<path d="M21.5,40.195h0.398v1.883c-0.133,0-0.266-0.004-0.398-0.007V40.195z M33.318,17.46c0,0-8.521,1.399-7.742,8.313
		c0,0-3.93-2.795,0.864-10.153C28.607,12.294,32.1,5.596,23.181,0c0,0,3.12,9.725-0.886,13.413c-1.208,1.112-4.006,0.274-1.996-6.34
		c0,0-6.247,2.147-4.764,8.12c0.39,1.562,0.351,1.341,2.087,3.531c0.725,0.909,2.377,4.41-1.206,6.09c0,0-1.171-9.446-7.657-7.982
		c0,0,5.235,3.936,4.097,14.249c-0.574,5.207,1.646,9.335,4.479,10.237c0.821,0.261,1.599,0.451,2.356,0.58v-1.703h-0.42v-2.399
		h-1.043v-5.433c0-0.939,1.233-1.452,2.607-1.604c-0.708-0.361-1.196-1.07-1.196-1.9c0-1.194,1.006-2.16,2.243-2.16
		c1.238,0,2.242,0.966,2.242,2.16c0,0.859-0.521,1.591-1.27,1.938c1.25,0.189,2.312,0.691,2.312,1.563v5.433h-1.043v2.399h-0.42
		v1.728c1.056-0.172,2.127-0.475,3.276-0.938c2.53-1.021,5.627-3.653,5.483-7.459c-0.084-2.178-0.889-3.575-2.176-8.35
		C30.293,25.178,28.41,20.321,33.318,17.46z"/>
</g>
</svg>